<?xml version="1.0" encoding="utf-8"?>
<!-- Generator: Adobe Illustrator 21.0.2, SVG Export Plug-In . SVG Version: 6.00 Build 0)  -->
<svg version="1.1" id="Layer_1" xmlns="http://www.w3.org/2000/svg" xmlns:xlink="http://www.w3.org/1999/xlink" x="0px" y="0px"
	 viewBox="0 0 1600 250" style="enable-background:new 0 0 1600 250;" xml:space="preserve">
<style type="text/css">
	.st0{fill:none;stroke:#FFFFFF;stroke-width:7;stroke-linecap:round;stroke-linejoin:round;}
	.st1{fill:none;stroke:#FFFFFF;stroke-width:5;stroke-linecap:round;stroke-linejoin:round;}
	.st2{fill:none;stroke:#FFFFFF;stroke-width:5;stroke-linecap:round;stroke-linejoin:bevel;}
	.st3{fill:none;stroke:#FFFFFF;stroke-width:5;stroke-linecap:round;stroke-linejoin:round;stroke-miterlimit:10;}
	.st4{fill:none;stroke:#FFFFFF;stroke-width:6;stroke-linecap:round;stroke-linejoin:bevel;stroke-miterlimit:10;}
	.st5{fill:none;stroke:#FFFFFF;stroke-width:7;stroke-linecap:round;stroke-linejoin:round;stroke-miterlimit:10;}
	.st6{fill:#FFFFFF;}
</style>
<g>
	<path class="st0" d="M402.5,64.6c-3,1-5.9,2.1-8.7,3.6c5.7-3.1,23.4-8.5,19.1-16.9c-10.2-20.3-52.2,7.3-61.8,15
		c-52.3,41.8-91.9,99.1-148.8,134.4c-4.8,3-10,5.8-15.6,5.5c-5.6-0.3-11.2-5.3-10.2-10.8c1.4-7.3,11.4-8.2,18.8-7.4
		c29.8,3.5,59.6,7.6,89.6,7.1s60.4-5.9,86.8-20.3c21-11.5,40.1-31.2,40.8-55.1c0.6-21.1-13.8-40.7-32.4-50.6
		c-18.6-9.9-40.7-11.5-61.6-9.4c-39.1,4-76.2,20.2-108.6,42.3c-34.7,23.6-64.1,53.8-92.2,84.8"/>
</g>
<g>
	<path class="st1" d="M462.7,165.7c-19.2,0.2-39.2-1.2-56.1,9.5c-8.1,5.2-15,15.5-10.5,23.9c4.1,7.7,15,8.6,23.3,5.9
		c12.5-4.2,25.9-10.1,37-17.2"/>
</g>
<g>
	<path class="st2" d="M576.5,193.1c8.4-15.7,17.9-30.8,28.6-45c4.1-5.4,10.1-12.4,17.5-11.1c-9.6,18.3-20.9,35.4-28.9,54.6
		c9.7,0,17.8-7.5,23.5-15.4s16.3-25.8,24.2-31.5c-5.8,8.3-15.1,27.2-15.5,37.2c-0.1,1.5-0.1,3.1,0.6,4.5c1.4,2.9,5.3,3.5,8.4,2.7
		c13.5-3.2,41.7-40.5,28-24.5"/>
</g>
<path class="st3" d="M415.5,154.9c14-10.7,28.1-21.5,43.5-30.2c3.6-2,7.4-4,11.5-4.2c7-0.4,11.6,4.5,11.1,11.3
	c-0.5,6.5-3.1,12.7-5.9,18.6c-4.4,9.1-9.5,17.8-15.3,26c-1.8,2.6-3.8,5.3-4.1,8.4c-0.3,3.2,1.8,6.8,5,6.8c1.8,0,3.5-1.1,5-2.2
	c11.1-8.1,41.6-26.1,52.7-34.3"/>
<path class="st4" d="M953.1,59.1c5,6.9,29.7,18.7,46.6,24.6c2.2,0.8,3.6-2.5,1.4-3.4c-6.3-2.6-13-3.8-20.5-2.7
	c-9.9,1.5-19.2,5.8-28.3,10.1c-20.9,9.8-41.8,19.7-62.8,29.5c-6,2.8-12.1,5.8-15.5,11.8c-1.7,3.1-2.2,6.7-1,10
	c2.8,7.5,12.3,8.4,19.9,8c27.8-1.5,55.5-7,81.7-16.4c1.6-0.6,2.9-1.6,3.7-3c3.5-6.2-5.8-6-9-5c-66.1,21-130.1,48.6-190.7,82.3
	c-7,3.9-14.7,8.8-14.2,17.7c0.1,2.7,1.1,5.3,2.7,7.5c4.2,6,10.9,8.7,17.7,10.4c22.4,5.7,46.1,1.9,68.5-4
	c53.2-14,103-39.6,147.8-71.5c24.6-17.5,48.5-37.6,62.7-64.3c1.3-2.4,2.5-5.1,1.8-7.9c-0.4-1.4-1.4-2.7-2.8-3.2
	c-2-0.7-3.6,0.4-5,1.6c-9,7.4-16,16.6-23.1,25.7c-6,7.5-11.7,15.2-17.2,23.1c-9.6,13.7-18.5,27.9-26.5,42.6
	c-1.9,3.4-3.8,7.2-1.7,11.1c1.8,3.2,5.4,5,9,4.7c13.5-1.2,31.3-12.4,44.4-17.6"/>
<path class="st3" d="M1062.7,154.3c-1.2,4,1.7,8.5,5.6,10.1c3.9,1.6,8.4,1,12.3-0.4c10.9-3.8,19.6-13.3,22.5-24.4
	c0.4-1.5,0.7-3,0.2-4.4c-1.1-3.2-5.3-4-8.7-3.8c-11.1,0.8-21.5,6.9-28.8,15.4c-7.2,8.5-11.6,19.2-13.8,30.1
	c-0.5,2.5-0.9,5.2,0.2,7.5c2.2,4.7,8.7,5.1,13.7,4c24.5-5.2,37.1-27.2,51.4-45.5c1.7-2.2,3.5-4.4,6-5.5c6.4-2.9,8.7,2.2,5.8,7.7
	c-7.2,13.4-14.4,26.9-21.6,40.3c14.6-16.3,29.2-32.6,43.8-49c11.1-12.4,11.1-12.4,11.1-12.4c7.8-8.8,32.2-18.4,23.5-26.2
	c-4.1,0.7-13.2,19.1-15.5,22.4c-8.8,12.9-22.9,27.7-27.1,43c-1.5,5.2-0.6,11.5,3.4,15.1c5.9,5.3,15.2,2.9,22.5-0.2
	c26.1-10.9,50.2-26.3,73.9-41.8"/>
<path class="st5" d="M1099.1,125.6c37-2.3,78.4-8.2,122.7-20.7c10.4-2.9,20.4-6,30-9.3"/>
<g>
	<path class="st1" d="M492.8,192.8c13.9-17.5,22.7-29.8,27.3-38.2c0,0,4.4-7.9,11.8-12.8c2.9-1.9,5.1-2.4,8.2-3
		c1.1-0.2,2.4-0.4,3.7,0.2c0,0,1.7,0.8,2.7,3c1.2,2.7,0.9,10.2-3.7,19.8c-0.2,0.4-0.3,0.7-0.5,0.9c-13.9,23.2-18.5,29.7-19.2,29.3
		c-1.3-0.7,15-28.8,24.8-33.2c3.2-1.4,7-2.7,7-2.7c3.4-1.1,5.7-1.9,8.7-2.3c5.7-0.8,6.3,0.5,9.7-0.7c3-1.1,6.8-3.6,7-7
		c0.1-1.7-0.8-3.8-2-4c-1.6-0.3-3.3,2.4-4.3,4c-9.1,14-8.6,10.4-14.3,21.3c-4.4,8.4-5.1,11.3-5,14.3c0.1,1.7,0.2,6.5,3,8
		c2.4,1.3,5.9-0.4,13.3-6c5-3.7,11.5-9,18.7-16"/>
</g>
<g>
	<path class="st2" d="M666,161.4c5.5-7,11-13.7,17.8-19.5c1.1-0.9,3-2.3,4.2-0.8c0.5,0.6,0.6,1.4,0.8,2.2c1.2,7.4,2.3,15,2.9,22.4
		c0.5,6.2-0.6,13-5,17.3c-2.9,2.8-6.8,4.3-10.5,5.8c-3.4,1.4-6.9,3-10.6,3.4c-4,0.4-12.4-1.5-9.1-7.3c3.4-5.9,15.5-7,21.3-9.1
		c17.8-6.4,29.6-22.9,43.7-35.6c1.9-1.8,4.1-3.5,6.6-4c2.6-0.5,5.7,0.9,6.2,3.5c0.3,1.6-0.4,3.3-1.2,4.7
		c-5.9,10.9-16.2,18.7-26.8,25.1c-4.8,2.9-10.2,6-11.9,11.4c-0.3,1-0.5,2.1-0.2,3.2c0.8,2.6,4.3,3.2,7,3.1
		c13.2-0.6,25.6-6.4,38-10.9c19.5-7,40.1-10.7,60.7-12.9"/>
</g>
<path class="st4" d="M604.5,67.8"/>
<path class="st4" d="M704.5,86.5"/>
<g>
	<path class="st6" d="M590.3,107.5c0,1.3-0.2,2.6-0.7,3.9c-0.5,1.2-1.1,2.4-2,3.5c-1.7,2.1-4.4,3.6-7.3,4c-1.5,0.2-3,0.1-4.5-0.4
		c-1.5-0.5-2.9-1.2-4.1-2.3c-1.2-1.1-2.2-2.4-2.9-3.9c-0.7-1.5-1-3.1-1-4.8c0-1.6,0.4-3.3,1-4.8c0.7-1.5,1.7-2.8,2.9-3.9
		c1.2-1.1,2.6-1.8,4.1-2.3c1.5-0.4,3-0.6,4.5-0.4c3,0.3,5.6,1.9,7.3,4c0.9,1,1.5,2.2,2,3.5C590.1,104.9,590.3,106.2,590.3,107.5z
		 M590,107.5c0-2.6-1.1-5.1-2.9-6.9c-1.8-1.8-4.3-2.8-6.9-2.8c-2.5,0-5,1.1-6.8,2.9c-1.8,1.8-2.8,4.3-2.8,6.8c0,2.5,1,5,2.8,6.8
		c1.8,1.8,4.3,2.8,6.8,2.9c2.5,0,5.1-1,6.9-2.8C588.9,112.6,590,110.1,590,107.5z"/>
</g>
</svg>
