<?xml version="1.0" encoding="utf-8"?>
<!-- Generator: Adobe Illustrator 21.0.2, SVG Export Plug-In . SVG Version: 6.00 Build 0)  -->
<svg version="1.1" id="Layer_1" xmlns="http://www.w3.org/2000/svg" xmlns:xlink="http://www.w3.org/1999/xlink" x="0px" y="0px"
	 viewBox="0 0 1024 1024" style="enable-background:new 0 0 1024 1024;" xml:space="preserve">
<style type="text/css">
	.st0{fill:#FFFFFF;}
</style>
<g>
	<path class="st0" d="M455.6,415c-2.9,1.1-5.9,2.2-8.5,3.7l-0.4-0.8c2.3-1.3,4.6-2.3,6.9-3.4c2.3-1.1,4.5-2.3,6.6-3.6
		c2-1.4,4.1-3,5.1-4.9c0.5-1,0.6-2,0.3-3c-0.3-1-1-2-1.6-3c-1.4-1.9-3.4-3.2-5.6-3.9c-2.2-0.7-4.7-0.8-7.1-0.7
		c-4.9,0.4-9.7,1.9-14.3,3.8c-9.2,3.8-17.9,9-26.1,14.8c-2,1.5-4,2.9-5.9,4.6l-5.8,4.9l-2.9,2.5l-2.8,2.6l-5.6,5.1
		c-29.8,27.4-56,58.7-86.2,86.4c-3.7,3.5-7.7,6.8-11.5,10.2c-1.9,1.7-4,3.3-6,4.9c-2,1.6-4,3.2-6,4.8l-6.2,4.6l-3.1,2.3
		c-1,0.8-2.1,1.4-3.2,2.2l-6.5,4.3c-2.1,1.4-4.4,2.8-6.9,4.1c-2.5,1.2-5.3,2.4-8.4,2.8c-1.6,0.2-3.1,0.3-4.8,0.1
		c-1.7-0.2-3.4-0.7-4.9-1.4c-3-1.4-5.7-3.7-7.4-7.1c-0.8-1.7-1.2-3.7-1.1-5.7c0.1-0.5,0.1-1,0.2-1.5c0.1-0.5,0.2-0.9,0.4-1.4
		c0.1-0.5,0.3-0.9,0.5-1.3c0.2-0.4,0.4-0.9,0.7-1.3c1-1.7,2.5-2.9,4-3.9c1.5-1,3-1.5,4.5-1.9c3-0.8,5.9-1,8.7-1
		c1.4,0,2.8,0.1,4.2,0.3l3.8,0.4l7.6,0.9c20.2,2.3,40.3,4.6,60.4,5.3c20.1,0.7,40.2-0.4,59.6-4.5c2.4-0.5,4.8-1.1,7.3-1.6
		c2.4-0.7,4.8-1.2,7.2-2c4.8-1.4,9.4-3.1,14-4.9c2.3-1,4.6-1.9,6.8-3c2.3-1,4.4-2.2,6.6-3.3c4.3-2.3,8.4-4.9,12.4-7.8
		c3.9-2.9,7.6-6.1,10.9-9.6c3.3-3.5,6.4-7.2,8.8-11.3c4.9-8.1,7.8-17.3,7.4-26.6c-0.4-9.3-4.1-18.3-9.7-26
		c-5.6-7.7-13.1-14-21.7-18.3c-8.6-4.4-18.1-7-27.8-8.3c-9.7-1.3-19.7-1.3-29.6-0.4c-19.9,1.8-39.5,6.8-58.1,14.3
		c-18.7,7.4-36.4,17.2-53.1,28.6c-16.7,11.3-32.4,24.2-47.3,37.9c-7.5,6.9-14.7,14-21.9,21.2c-7.2,7.2-14.2,14.5-21.2,21.9l0,0
		c-0.1,0.1-0.3,0.1-0.4,0c-0.1-0.1-0.1-0.2,0-0.3c13.6-15.1,27.6-29.9,42.3-44c14.7-14,30.3-27.2,47-38.9
		c16.7-11.6,34.5-21.7,53.4-29.4c18.8-7.7,38.7-13.1,59-15.1c10.1-1,20.4-1.1,30.5,0.1c10.1,1.3,20.1,4,29.2,8.6
		c9.1,4.6,17.2,11.3,23.3,19.6c6.1,8.2,10.2,18.1,10.7,28.4c0.6,10.3-2.6,20.5-7.9,29.2c-2.7,4.4-5.9,8.4-9.4,12.1
		c-3.5,3.7-7.4,7.1-11.5,10.1c-4.1,3-8.4,5.8-12.9,8.2c-2.3,1.2-4.5,2.4-6.8,3.4c-2.3,1.1-4.6,2.1-7,3.1c-4.7,1.9-9.5,3.7-14.4,5.1
		c-2.4,0.8-4.9,1.4-7.4,2.1c-2.5,0.6-4.9,1.2-7.4,1.7c-20,4.2-40.5,5.2-60.8,4.4c-20.4-0.7-40.6-3.1-60.8-5.6l-7.6-0.9
		c-2.5-0.3-5-0.7-7.5-0.7c-2.5-0.1-5,0.2-7.4,0.8c-2.4,0.7-4.7,1.8-6,3.9c-0.6,1-1.1,2.2-1.1,3.4c-0.1,1.2,0.2,2.4,0.7,3.5
		c1,2.2,3,3.9,5.2,5c1.1,0.5,2.3,0.9,3.5,1c1.2,0.1,2.5,0.1,3.7-0.1c2.5-0.4,4.8-1.3,7.1-2.4c2.2-1.1,4.4-2.4,6.5-3.8l6.4-4.2
		c1.1-0.7,2.1-1.4,3.2-2.1l3.1-2.2l6.2-4.5l6-4.7c2-1.6,4-3.1,5.9-4.8c3.9-3.3,7.8-6.5,11.5-10c30.3-27.1,56.8-58.1,87-85.4l5.7-5.1
		l2.9-2.5l2.9-2.4l5.9-4.9c2-1.6,4-3.1,6.1-4.6c4.2-2.9,8.5-5.6,13-8c4.5-2.5,9-4.7,13.8-6.6c4.7-1.8,9.7-3.3,14.8-3.7
		c2.6-0.1,5.2,0,7.6,0.9c2.5,0.8,4.7,2.4,6.2,4.5c0.4,0.5,0.7,1.1,1,1.6c0.2,0.3,0.3,0.6,0.4,0.9c0.1,0.3,0.2,0.6,0.3,0.9
		c0.4,1.3,0.1,2.7-0.5,3.9c-1.3,2.3-3.4,3.9-5.6,5.3c-2.2,1.4-4.5,2.5-6.8,3.5c-2.3,1.1-4.7,2-6.9,3.2c-0.1,0.1-0.3,0-0.3-0.1
		c-0.1-0.1,0-0.3,0.1-0.3c2.8-1.5,5.7-2.6,8.7-3.6c0.1,0,0.3,0,0.3,0.2C455.8,414.8,455.8,415,455.6,415L455.6,415z"/>
</g>
<g>
	<path class="st0" d="M519.2,517.6c-6.4-0.3-12.7-0.6-19-0.4c-6.3,0.1-12.6,0.7-18.7,1.9c-6.1,1.3-12.1,3.3-17.2,6.7
		c-2.6,1.7-4.9,3.7-6.9,6c-0.5,0.6-1,1.2-1.4,1.8c-0.5,0.6-0.9,1.2-1.3,1.9l-0.6,1c-0.2,0.3-0.3,0.7-0.5,1c-0.1,0.3-0.3,0.6-0.5,1
		l-0.3,1c-1.7,5.6,1.6,12.2,7.1,14.6c0.7,0.4,1.4,0.5,2.1,0.8c0.7,0.2,1.5,0.3,2.2,0.4c0.7,0,1.5,0.1,2.3,0c0.8-0.1,1.5-0.2,2.3-0.4
		c3.1-0.7,6.2-1.5,9.3-2.4c12.3-3.5,24.1-8.6,35.1-15.2c-10.7,7-22.5,12.5-34.7,16.4c-3.1,1-6.1,1.9-9.3,2.7
		c-0.8,0.2-1.6,0.3-2.5,0.5c-0.8,0.1-1.7,0.1-2.5,0.1c-0.8-0.1-1.7-0.2-2.5-0.4c-0.8-0.2-1.7-0.4-2.4-0.8c-3.1-1.3-5.8-3.8-7.4-6.8
		c-0.2-0.4-0.4-0.8-0.6-1.2l-0.4-1.2l-0.2-0.6c-0.1-0.2-0.1-0.4-0.1-0.6l-0.3-1.3c-0.1-0.4-0.1-0.9-0.1-1.3c0-0.4-0.1-0.9,0-1.3
		c0.1-0.9,0.1-1.8,0.4-2.6l0.3-1.3c0.1-0.4,0.3-0.8,0.5-1.2c0.2-0.4,0.3-0.8,0.5-1.2l0.6-1.1c0.4-0.7,0.9-1.4,1.3-2.1
		c0.5-0.7,1-1.4,1.5-2c2.1-2.6,4.6-4.9,7.3-6.8c5.5-3.8,11.8-6.2,18.2-7.8c12.8-3,25.9-3,38.8-2.8c1.4,0,2.5,1.2,2.5,2.5
		C521.8,516.5,520.7,517.6,519.2,517.6C519.3,517.6,519.3,517.6,519.2,517.6z"/>
</g>
<g>
	<path class="st0" d="M627.7,542.4c6-11.1,12.6-21.8,19.8-32.2c3.6-5.2,7.3-10.2,11.2-15.2c2.1-2.5,4.3-4.9,7.2-6.7
		c1.4-0.9,3-1.7,4.7-2.2c1.7-0.5,3.6-0.5,5.3-0.2l1,2.1c-4.9,9.1-10.2,18-15.3,26.9c-5.1,8.9-10,18-13.9,27.4l-0.9-1.4
		c2.7,0,5.4-0.6,8-1.7c2.5-1.1,4.9-2.7,7-4.5c2.1-1.8,4.1-3.9,5.9-6.1c1.8-2.2,3.4-4.5,5-6.9c3.2-4.7,6.4-9.6,9.8-14.2
		c1.7-2.3,3.5-4.6,5.4-6.8c1.9-2.2,3.9-4.3,6.3-6.1l0.8,0.8c-2.2,3.1-4.1,6.5-5.9,9.8c-1.8,3.4-3.5,6.9-5,10.4
		c-1.5,3.5-2.8,7.1-3.8,10.8c-0.5,1.8-0.8,3.7-1,5.6c-0.1,1.9-0.1,3.9,1,5.3c1.1,1.5,3,2.2,4.8,2.3c0.9,0,1.9-0.1,2.7-0.4
		c0.9-0.3,1.8-0.6,2.6-1.1c3.4-1.7,6.5-4.1,9.2-6.7c2.8-2.6,5.3-5.5,8-8.4c2.6-2.8,5.3-5.7,8.3-8.1c-3,2.4-5.6,5.3-8.1,8.2
		c-2.6,2.9-5.1,5.8-7.8,8.5c-2.8,2.7-5.8,5.2-9.3,7c-0.9,0.4-1.8,0.8-2.7,1.1c-0.9,0.3-1.9,0.5-2.9,0.4c-2,0-4.1-0.8-5.3-2.4
		c-0.6-0.8-1-1.8-1.1-2.8c-0.1-1-0.1-2-0.1-3c0.1-2,0.5-3.9,0.9-5.8c0.9-3.8,2.2-7.4,3.7-11c1.5-3.6,3.1-7.1,4.9-10.5
		c1.8-3.4,3.7-6.8,5.9-10l0.8,0.8c-2.2,1.7-4.2,3.8-6,5.9c-1.8,2.2-3.6,4.5-5.2,6.8c-3.3,4.7-6.5,9.5-9.6,14.3
		c-3.1,4.8-6.6,9.6-11.1,13.5c-2.2,1.9-4.7,3.6-7.4,4.9c-2.7,1.3-5.7,2-8.7,2l-0.9-1.4c3.9-9.6,8.7-18.8,13.7-27.8
		c5-9,10.2-17.9,14.9-27l1,2.1c-1.3-0.2-2.7-0.1-4,0.2c-1.3,0.4-2.6,1-3.8,1.8c-2.4,1.6-4.5,3.8-6.4,6.2c-3.8,4.9-7.4,10-10.9,15.2
		c-7,10.4-13.3,21.1-19.1,32.1l-0.9,1.8l-3.6-1.9L627.7,542.4z"/>
</g>
<g>
	<path class="st0" d="M468.4,505l5.2-4.5l5.3-4.4c3.6-2.9,7.1-5.9,10.8-8.6c7.4-5.5,15-10.8,23.1-15.5c2.1-1.2,4.3-2.2,6.8-2.9
		c2.5-0.7,5.2-1,8-0.4c2.8,0.6,5.5,2.2,7.2,4.6c1.8,2.4,2.5,5.3,2.4,8.1c0,0.3,0,0.7,0,1l-0.1,0.9c-0.1,0.6-0.1,1.2-0.2,1.8
		c-0.2,1.2-0.4,2.4-0.7,3.6c-0.6,2.4-1.4,4.7-2.2,6.9c-0.9,2.2-1.9,4.4-2.9,6.5c-1,2.1-2.1,4.2-3.2,6.2c-2.2,4.1-4.5,8.2-7.1,12.1
		c-1.3,2-2.6,3.9-3.9,5.8c-1.3,1.9-2.8,3.7-3.8,5.5c-1,1.7-1.6,3.6-1.4,5c0.1,0.8,0.4,1.6,0.9,2.2c0.2,0.3,0.5,0.5,0.7,0.7
		c0.3,0.2,0.5,0.3,0.8,0.4c0.6,0.1,1.3,0,2.1-0.4c0.8-0.4,1.7-1,2.7-1.7c1.9-1.3,3.9-2.6,5.8-3.8c15.5-10,31.8-18.6,47.2-28.6l0,0
		c0.1,0,0.2,0,0.2,0c0,0.1,0,0.2,0,0.2c-7.5,5.4-15.3,10.2-23.1,15.1c-7.8,4.9-15.6,9.8-23.2,14.8c-1.9,1.3-3.8,2.6-5.7,3.9
		c-0.9,0.7-1.8,1.4-2.9,1.9c-1,0.6-2.2,0.9-3.4,0.7c-0.6-0.1-1.2-0.3-1.7-0.6c-0.5-0.3-1-0.7-1.3-1.2c-0.7-0.9-1.2-2-1.5-3.2
		c-0.5-2.4,0.4-4.7,1.5-6.7c1.2-2,2.6-3.8,3.9-5.7c1.3-1.9,2.6-3.8,3.8-5.8c2.4-3.9,4.7-7.9,6.9-11.9c2.1-4.1,4.2-8.2,5.9-12.4
		c1.7-4.2,3-8.7,3.2-13.2c0.1-2.2-0.5-4.5-1.8-6.4c-1.3-1.8-3.3-3.1-5.5-3.6c-2.2-0.5-4.5-0.3-6.7,0.3c-2.2,0.6-4.3,1.5-6.3,2.6
		c-16.1,8.8-30.8,20-45.4,31.2c-0.1,0.1-0.2,0-0.2,0C468.3,505.2,468.3,505.1,468.4,505L468.4,505z"/>
</g>
<g>
	<path class="st0" d="M477.9,619.3c-0.3,1.4,0,2.8,0.7,4c0.7,1.2,1.7,2.3,2.8,3.2c2.2,1.9,4.7,3.4,7.3,4.7c2.6,1.3,5.3,2.4,8,3.3
		c2.8,1,5.5,1.8,8.3,2.3c1.4,0.2,3,0.5,4.1,0.4c0.3,0,0.5-0.1,0.6-0.2c0.1,0,0,0,0,0.1c0,0.1,0,0.2,0,0.2c0.1,0-0.8-0.5-1.4-0.9
		c-2.5-1.6-5-3.1-7.5-4.6c-2.5-1.4-5.1-2.7-7.8-3.6c-2.7-0.9-5.4-1.4-8.2-1.3c-5.6,0-11.2,1.7-16.5,3.8c-2.7,1.1-5.3,2.3-8,3.6
		l-8,3.7l-31.9,14.9l-32,14.7l-7.9,3.7c-2.6,1.2-5,2.5-7.1,4.1c-1,0.8-2,1.7-2.8,2.6c-0.8,0.9-1.5,1.9-2,3c-1,2.2-1.4,4.6-1,6.7
		c0.5,2,1.8,3.7,3.8,4.8c2,1.1,4.6,1.6,7.2,1.8c1.3,0.1,2.7,0.1,4.1,0.1l4.3-0.2c2.9-0.2,5.8-0.3,8.6-0.6
		c11.5-1.1,22.9-3.2,34.2-5.9c5.7-1.3,11.3-2.8,16.9-4.4l8.4-2.4l4.2-1.2l2.1-0.6l1-0.3c0.3-0.1,0.5-0.2,0.8-0.3
		c1.1-0.4,2.1-1,2.9-1.6c0.8-0.6,1.1-1.3,1-1.1c0,0.1,0,0.2,0,0.2c0,0,0.1,0.1,0,0.1c0-0.1-0.9-0.3-1.9-0.1
		c-0.5,0.1-1.1,0.2-1.6,0.3c-0.3,0.1-0.6,0.1-0.9,0.2l-1,0.3l-4.2,1.4l-8.3,2.7c-22.2,7.5-44.1,15.6-65.7,24.5
		c-21.6,8.9-42.9,18.6-63.9,28.9c-10.5,5.2-20.9,10.5-31.1,16.1c-5.2,2.7-10.3,5.6-15.4,8.4c-2.5,1.4-4.9,2.8-6.8,4.3
		c-2,1.5-3.6,3.3-4.4,5c-0.9,1.8-1.1,3.6-0.7,5.6c0.4,2,1.5,4,3,5.7c1.5,1.6,3.5,3,5.7,4.1c2.3,1.1,4.8,2,7.4,2.7
		c10.8,2.8,22.1,3.4,33.5,2.4c11.3-1,22.6-3.3,33.8-6.3c11.2-2.9,22.3-6.4,33.2-10.4c21.9-7.8,43-17.6,63.4-28.9
		c2.5-1.4,5.1-2.8,7.6-4.3l7.5-4.4l7.5-4.6c2.5-1.5,4.9-3.1,7.4-4.6c9.8-6.3,19.5-12.8,28.9-19.7c4.7-3.5,9.3-7,13.7-10.7
		c4.5-3.7,8.8-7.5,12.9-11.5c8.3-8,15.8-16.8,22-26.5c1.6-2.4,3-4.9,4.4-7.4c0.7-1.2,1.2-2.4,1.5-3.4c0.2-0.5,0.2-1,0.2-1.4
		c0-0.2,0-0.4,0-0.6c0-0.2-0.1-0.3-0.1-0.5c-0.2-0.7-0.9-1.3-1.1-1.3c-0.1,0-0.2-0.1-0.5,0c-0.3,0.1-0.7,0.4-1.2,0.7
		c-2.1,1.7-4.3,3.7-6.3,5.7c-4.1,4-7.8,8.4-11.5,12.9l-5.5,6.8l-5.5,6.9c-14.4,18.4-27.5,37.8-39.1,58.1c-1.4,2.5-2.7,5-2.4,7.5
		c0.2,2.4,2.1,4.7,4.4,5.7c1.2,0.5,2.5,0.8,3.8,0.7c1.4-0.1,2.8-0.3,4.2-0.6c2.8-0.5,5.6-1.4,8.3-2.3c11-3.8,21.3-9.7,32.2-14
		c0.1,0,0.3,0,0.3,0.1c0,0.1,0,0.3-0.1,0.3c-10.8,4.4-21,10.5-32,14.6c-2.8,1-5.6,1.9-8.5,2.5c-1.4,0.3-2.9,0.5-4.4,0.6
		c-1.5,0.1-3-0.2-4.4-0.8c-2.8-1.2-5-3.8-5.4-6.8c-0.2-1.5,0.1-3,0.6-4.4c0.5-1.4,1.2-2.7,1.9-4c11.3-20.6,24.2-40.3,38.5-58.9
		c3.6-4.7,7.2-9.2,10.9-13.8c3.7-4.6,7.5-9.1,11.6-13.3c2.1-2.1,4.2-4.1,6.5-5.9c0.6-0.5,1.2-0.9,1.9-1.2c0.7-0.3,1.6-0.4,2.4-0.2
		c1.6,0.4,2.7,1.7,3.3,3.1c0.6,1.5,0.5,3.1,0.1,4.5c-0.4,1.5-1.1,2.8-1.8,4.1c-1.4,2.6-2.8,5.2-4.4,7.6c-6.2,10-13.9,19-22.2,27.3
		c-4.2,4.1-8.5,8.1-13,11.9c-4.5,3.8-9.1,7.4-13.8,10.9c-9.4,7-19.1,13.7-28.9,20.1c-9.8,6.4-19.9,12.5-30.2,18.1
		c-20.5,11.4-41.9,21.3-64,29.3c-11,4-22.2,7.6-33.6,10.6c-11.3,3-22.9,5.5-34.6,6.5c-11.7,1-23.7,0.5-35.1-2.4
		c-2.9-0.7-5.7-1.7-8.4-3c-2.7-1.3-5.2-3-7.2-5.2c-2-2.2-3.6-4.9-4.2-7.9c-0.3-1.5-0.4-3-0.3-4.5c0.2-1.5,0.6-3,1.3-4.4
		c1.4-2.7,3.5-4.9,5.9-6.7c2.4-1.8,4.9-3.3,7.5-4.7c5.2-2.8,10.3-5.7,15.5-8.4c10.3-5.6,20.8-10.8,31.3-16
		c21.1-10.3,42.5-20,64.2-28.8c21.7-8.9,43.8-17,66-24.4l8.4-2.7l4.2-1.4c1.4-0.5,2.9-0.9,4.4-1c1.5-0.1,3.1-0.1,4.5,0.7
		c1.4,0.8,2.2,2.5,2,4.1c-0.3,1.6-1.5,2.8-2.6,3.8c-1.2,0.9-2.6,1.6-4,2.1c-5.7,1.7-11.3,3.3-17,4.8c-5.7,1.5-11.4,2.9-17.1,4.2
		c-11.5,2.6-23,4.6-34.8,5.6c-2.9,0.3-5.9,0.4-8.8,0.6c-2.9,0.1-5.9,0.3-8.8,0c-2.9-0.3-5.9-0.9-8.6-2.3c-2.6-1.4-4.7-4-5.4-7
		c-0.6-3,0-6.1,1.3-8.8c1.3-2.7,3.4-4.9,5.8-6.7c2.4-1.8,5-3.2,7.7-4.4l8-3.6l32.1-14.4l32.1-14.4l8-3.6c2.7-1.2,5.4-2.4,8.1-3.5
		c5.5-2.1,11.3-3.8,17.2-3.7c3,0,5.9,0.6,8.7,1.6c2.8,1,5.4,2.3,8,3.8c2.5,1.5,5,3.1,7.4,4.7l0.9,0.6c0.3,0.2,0.7,0.4,0.9,0.9
		c0.1,0.2,0.2,0.5,0.1,0.7c-0.1,0.3-0.3,0.4-0.5,0.5c-0.4,0.2-0.7,0.3-1.1,0.4c-0.8,0.1-1.5,0-2.3-0.1c-0.7-0.1-1.5-0.2-2.2-0.4
		c-2.9-0.6-5.7-1.5-8.5-2.5c-2.8-1-5.5-2.2-8.1-3.5c-2.6-1.4-5.1-3-7.3-5c-1.1-1-2.1-2.1-2.8-3.4c-0.3-0.7-0.6-1.4-0.8-2.1
		c-0.1-0.8-0.1-1.5,0.1-2.3c0-0.1,0.2-0.2,0.3-0.2C477.8,619,477.9,619.2,477.9,619.3L477.9,619.3z"/>
</g>
<g>
	<path class="st0" d="M555.1,704.7c-0.2,0.7-0.3,1.5-0.2,2.3c0.1,0.8,0.2,1.5,0.5,2.2c0.6,1.4,1.5,2.7,2.7,3.7
		c2.4,2.1,5.7,2.7,8.7,2.4c3.1-0.2,6.1-1.3,9-2.6c2.8-1.3,5.5-3,7.9-5.1c4.8-4.1,8.5-9.4,10.5-15.3c0.3-0.7,0.5-1.5,0.7-2.2
		c0.2-0.7,0.4-1.5,0.5-2.3c0.1-0.7,0.1-1.5-0.1-2.2c-0.2-0.7-0.6-1.3-1.1-1.8c-1-1-2.5-1.5-4-1.8c-1.5-0.2-3.1-0.2-4.6,0
		c-6.2,0.7-12.2,3.1-17.3,6.6c-5.2,3.5-9.6,8-13.1,13.2c-3.5,5.2-6.1,11-8,16.9c-0.9,3-1.7,6-2.3,9.1c-0.3,1.5-0.5,3-0.3,4.5
		c0.2,1.4,0.8,2.7,1.9,3.7c1,1,2.4,1.6,3.8,1.9c1.4,0.3,3,0.4,4.5,0.3c1.5-0.1,3-0.3,4.5-0.8c1.5-0.4,3-0.7,4.5-1.3
		c5.9-2,11.3-5.3,16.1-9.2c4.8-4,9.1-8.6,13-13.4c4-4.9,7.7-10,11.4-15c1.9-2.5,3.8-5.1,5.8-7.6c1-1.2,2.2-2.5,3.7-3.4
		c0.7-0.5,1.5-0.9,2.3-1.2c0.8-0.3,1.7-0.5,2.6-0.6c0.9,0,2,0.1,2.9,0.7c0.9,0.6,1.5,1.5,1.8,2.4c0.6,1.9,0.2,3.7-0.3,5.3
		c-0.6,1.7-1.5,3-2.2,4.4l-2.2,4.2l-17.8,33.4l-1.9-1.3l40.2-45.3l10-11.3l2.5-2.8l1.3-1.4l0.6-0.7l0.7-0.7c1.9-1.9,3.9-3.5,6-5
		c4.1-3,8.4-5.7,12.3-8.7c1.9-1.5,3.8-3.1,5-4.9c0.6-0.9,0.9-1.8,0.8-2.6c0-0.7-0.6-1.5-1.3-2.2l1.3,0.4c0,0-0.4,0.2-0.7,0.4
		c-0.3,0.3-0.7,0.6-1,0.9c-0.7,0.7-1.3,1.5-1.9,2.3c-1.2,1.7-2.3,3.4-3.4,5.2c-2.2,3.6-4.2,7.3-6.4,11c-0.3,0.5-0.5,0.9-0.8,1.4
		c-0.3,0.5-0.6,0.9-0.9,1.4c-0.6,0.9-1.2,1.8-1.9,2.6c-1.3,1.7-2.5,3.4-3.8,5.1c-2.6,3.4-5.2,6.7-7.7,10.1
		c-5,6.8-9.7,13.8-12.4,21.6c-0.3,1-0.7,2-0.9,2.9c-0.2,1-0.4,1.9-0.4,2.9c-0.1,2,0.1,3.9,0.8,5.8c0.7,1.8,1.7,3.5,3.2,4.6
		c1.5,1.2,3.2,2,5.2,2.3c3.9,0.7,8-0.2,11.9-1.5c2-0.6,3.9-1.4,5.8-2.3c2-0.8,3.9-1.6,5.8-2.5c7.7-3.4,15.3-7.3,22.7-11.3
		c14.9-8.1,29.3-17.1,43.6-26.2c0.1,0,0.2,0,0.2,0c0,0.1,0,0.2,0,0.2c-14.1,9.5-28.2,18.9-43,27.3c-7.4,4.2-14.9,8.2-22.6,11.8
		c-1.9,0.9-3.9,1.8-5.8,2.6c-1.9,0.9-3.9,1.7-6,2.4c-2.1,0.7-4.2,1.3-6.3,1.6c-2.2,0.3-4.4,0.5-6.7,0.1c-2.3-0.4-4.5-1.3-6.3-2.8
		c-1.9-1.4-3.2-3.5-4-5.7c-0.8-2.2-1.1-4.5-1-6.8c0.1-1.1,0.2-2.3,0.4-3.4c0.2-1.1,0.6-2.1,0.9-3.2c1.4-4.2,3.3-8.1,5.5-11.8
		c2.2-3.7,4.6-7.3,7.1-10.7c2.5-3.5,5.1-6.8,7.6-10.2c1.3-1.7,2.5-3.4,3.8-5.1c0.6-0.8,1.2-1.7,1.8-2.6c0.3-0.4,0.6-0.9,0.9-1.3
		c0.3-0.4,0.5-0.9,0.8-1.3c2.1-3.6,4.1-7.4,6.4-11.1c1.1-1.8,2.3-3.6,3.6-5.4c0.6-0.9,1.3-1.8,2.1-2.6c0.4-0.4,0.8-0.8,1.3-1.2
		c0.5-0.4,1.1-0.8,2.1-1.1l0,0c0.5-0.1,1,0.1,1.3,0.4l0.8,0.8c0.3,0.3,0.5,0.6,0.7,1c0.2,0.4,0.4,0.8,0.5,1.1
		c0.1,0.4,0.3,0.8,0.3,1.3c0.2,1.8-0.5,3.3-1.3,4.5c-1.6,2.4-3.7,4.1-5.7,5.7c-4.1,3.1-8.4,5.8-12.4,8.7c-2,1.4-4,2.9-5.7,4.6
		l-0.6,0.6l-0.6,0.7l-1.3,1.4l-2.5,2.8l-10.1,11.2l-40.5,45l0,0c-0.4,0.5-1.2,0.5-1.7,0.1c-0.4-0.4-0.5-1-0.2-1.4l18-33.3l2.2-4.2
		c0.7-1.4,1.6-2.8,2.1-4.1c0.5-1.3,0.7-2.8,0.3-4c-0.2-0.6-0.5-1-1-1.3c-0.5-0.3-1.1-0.4-1.7-0.4c-1.3,0.1-2.7,0.6-3.9,1.4
		c-1.2,0.8-2.3,1.9-3.3,3c-2,2.4-3.9,4.9-5.8,7.4c-3.8,5-7.5,10.1-11.6,15c-4,4.9-8.4,9.6-13.4,13.6c-5,4-10.6,7.4-16.6,9.4
		c-1.5,0.6-3.1,0.9-4.6,1.3c-1.5,0.4-3.2,0.7-4.8,0.8c-1.6,0.1-3.3,0-4.9-0.4c-1.6-0.4-3.3-1.1-4.5-2.3c-1.3-1.2-2.1-2.9-2.3-4.6
		c-0.2-1.7,0-3.4,0.3-4.9c0.6-3.1,1.4-6.2,2.4-9.2c2-6.1,4.6-11.9,8.2-17.2c3.6-5.3,8.1-9.9,13.5-13.4c5.3-3.5,11.4-5.9,17.8-6.6
		c1.6-0.2,3.2-0.3,4.8,0c1.6,0.3,3.2,0.8,4.5,2c0.6,0.6,1,1.4,1.3,2.2c0.2,0.8,0.2,1.7,0.1,2.5c-0.1,0.8-0.3,1.6-0.5,2.4
		c-0.2,0.8-0.4,1.5-0.7,2.3c-2.2,6-6,11.4-10.8,15.5c-2.4,2-5.1,3.8-8,5.1c-2.9,1.3-6,2.3-9.2,2.5c-3.2,0.2-6.6-0.4-9-2.6
		c-1.2-1.1-2.2-2.4-2.8-3.9c-0.3-0.8-0.5-1.5-0.5-2.3c0-0.8,0.1-1.6,0.3-2.4c0-0.1,0.1-0.1,0.2-0.1
		C555,704.6,555.1,704.6,555.1,704.7L555.1,704.7z"/>
</g>
<g>
	<path class="st0" d="M591.3,675.9l4.8-0.7l4.8-0.6c3.2-0.4,6.4-0.9,9.7-1.4c6.4-0.9,12.9-1.8,19.3-2.8c12.8-2.1,25.6-4.2,38.3-6.8
		c6.4-1.2,12.7-2.6,19-3.9c3.2-0.7,6.3-1.4,9.5-2.1l4.7-1.1c1.6-0.4,3.2-0.7,4.7-1.1c3.2-0.8,6.3-1.5,9.5-2.2l9.4-2.4
		c3.2-0.8,6.3-1.6,9.5-2.4l4.7-1.2l4.7-1.2l0,0c0.1,0,0.2,0,0.2,0.1c0,0.1,0,0.2-0.1,0.2c-12.3,4.2-24.7,8-37.3,11.4
		c-12.6,3.4-25.2,6.3-38,8.9c-12.8,2.5-25.6,4.5-38.5,6.1c-12.9,1.6-25.9,2.8-38.9,3.6c-0.1,0-0.2-0.1-0.2-0.1
		C591.2,675.9,591.2,675.9,591.3,675.9L591.3,675.9z"/>
</g>
<g>
	<path class="st0" d="M545.7,542.9l6.9-9.5c2.3-3.2,4.6-6.4,6.8-9.6c2.2-3.2,4.4-6.5,6.5-9.7c2.1-3.3,4.1-6.6,5.9-10l0.3-0.3
		c-0.1,0.1-0.2,0.2-0.2,0.2l0.1-0.1l0.1-0.2l0.3-0.4l0.5-0.8c0.3-0.6,0.7-1.1,1.1-1.6c0.7-1.1,1.5-2.1,2.4-3.1
		c1.7-2,3.5-3.9,5.5-5.6c0.5-0.4,1-0.8,1.6-1.2c0.5-0.4,1.1-0.8,1.7-1.1c1.2-0.7,2.5-1.3,3.8-1.7c1.3-0.4,2.6-0.7,3.8-1
		c0.7-0.1,1.4-0.3,2.3-0.3c0.9,0,1.8,0.2,2.7,0.5l0.6,0.4c-0.1-0.2-0.6-0.4-0.5-0.4l0,0l0.1,0l0.2,0.1l0.3,0.2
		c0.2,0.1,0.3,0.2,0.5,0.3c0.3,0.2,0.6,0.5,0.9,0.8c0.5,0.5,1,1.2,1.4,1.8c0.2,0.3,0.4,0.6,0.5,1c0.2,0.4,0.3,0.8,0.4,1.1
		c0.2,0.7,0.3,1.4,0.3,2.1c0.2,2.6-0.1,5.1-0.6,7.5c-0.5,2.4-1.2,4.7-2.1,7c-0.4,1.1-0.9,2.2-1.4,3.3c-0.2,0.5-0.5,1.2-0.8,1.7
		l-0.9,1.5c-4.7,8-9.4,15.8-14.6,23.6c-0.7,1-1.3,1.9-2.1,2.9c-0.2,0.3-0.4,0.5-0.6,0.8c-0.2,0.3-0.5,0.5-1,1
		c-0.1,0.1-0.1,0.1-0.2,0.2c-0.1,0.1-0.3,0.2-0.4,0.2c0,0-0.2,0.1-0.4,0.2c-0.2,0.1-0.3,0.1-0.5,0.1c-0.1,0-0.2,0-0.4,0
		c-0.2,0-0.4,0-0.6-0.1c-0.4-0.1-0.7-0.2-1-0.5c-0.3-0.2-0.6-0.6-0.8-0.9c-0.1-0.2-0.2-0.4-0.2-0.6c0-0.2-0.1-0.4-0.1-0.5l0-0.3
		c0-0.4,0-0.5,0.1-0.7c0.1-0.6,0.2-0.9,0.4-1.3c0.5-1.3,1-2.3,1.6-3.4c0.5-1.1,1.1-2.1,1.7-3.1c2.3-4.1,4.8-8,7.6-11.8
		c2.8-3.8,5.7-7.5,9.3-10.8c0.9-0.8,1.9-1.6,2.9-2.4c0.5-0.4,1.1-0.7,1.7-1.1c0.6-0.3,1.3-0.7,1.8-0.9c1.1-0.5,2.2-0.9,3.3-1.3
		l1.7-0.6l0.8-0.3l0.4-0.1l0.2-0.1l0.1,0l0.1,0c0,0-0.1,0-0.1,0c-0.1,0-0.1,0-0.2,0.1l0.3-0.1c2.6-0.8,5.3-1.7,8.2-2.2
		c1.4-0.2,2.9-0.4,4.4-0.4c1.5-0.1,3.1,0.2,4,0.2c0.5,0,0.9-0.1,1.4-0.2c0.5-0.1,1-0.4,1.5-0.6c1-0.5,2-1.1,2.8-1.8
		c0.8-0.7,1.3-1.5,1.4-2.2c0.1-0.3,0.1-0.7,0-1.1c-0.1-0.4-0.2-0.8-0.4-1c-0.1-0.1-0.1-0.1,0,0c0.1,0.1,0.5,0.1,0.7,0.1
		c0.1,0,0.1,0,0,0c-0.1,0.1-0.3,0.2-0.4,0.4c-0.7,0.7-1.4,1.8-2.2,2.9c-1.5,2.3-3.1,4.5-4.7,6.7c-1.6,2.2-3.5,4.4-5,6.4
		c-1.5,2-2.8,4.3-4.2,6.7c-1.3,2.3-2.6,4.7-3.7,7.1c-0.5,1.2-1,2.4-1.4,3.6c-0.3,1.2-0.5,2.3-0.5,3.6c0,1.3,0.1,2.6,0.3,3.7
		c0.3,1.1,0.7,2.2,1.3,2.8c0.6,0.6,1.4,0.7,2.6,0.4c1.1-0.3,2.3-0.8,3.4-1.5c2.3-1.3,4.5-2.8,6.7-4.3c2.2-1.6,4.4-3.2,6.5-4.8
		c4.3-3.3,8.4-6.8,12.4-10.4l0,0c0.1-0.1,0.2-0.1,0.2,0c0.1,0.1,0.1,0.2,0,0.2c-3.9,3.8-7.9,7.4-12.1,10.9c-2.1,1.7-4.2,3.4-6.4,5
		c-2.2,1.6-4.4,3.2-6.7,4.6c-1.2,0.7-2.4,1.3-3.7,1.7c-0.7,0.2-1.4,0.3-2.1,0.2c-0.7-0.1-1.4-0.4-1.9-0.9c-1.1-0.9-1.6-2.3-1.9-3.6
		c-0.3-1.3-0.4-2.7-0.5-4.1c-0.1-2.8,0.8-5.4,1.8-7.9c1.1-2.5,2.3-4.9,3.6-7.3c1.3-2.4,2.6-4.8,4.2-7c1.6-2.2,3.3-4.3,4.9-6.5
		c1.6-2.2,3.1-4.4,4.6-6.7c0.7-1.1,1.5-2.3,2.4-3.3c0.5-0.5,1-1,1.8-1.2c0.4-0.1,0.8,0,1.1,0.2c0.3,0.2,0.6,0.5,0.8,0.8
		c0.8,1.2,1.1,2.7,0.8,4.1c-0.3,1.4-1.2,2.6-2.2,3.5c-1,1-2.2,1.7-3.4,2.3c-1.2,0.6-2.6,1.1-4,1.1c-1.4,0-2.7-0.2-4.1-0.1
		c-1.3,0-2.7,0.2-4,0.4c-2.6,0.5-5.2,1.3-7.8,2.2l0,0c-2.2,0.8-4.3,1.5-6.5,2.4c-2.1,0.8-3.9,2.3-5.6,3.9c-3.3,3.2-6.2,6.8-8.9,10.5
		c-2.7,3.7-5.2,7.6-7.5,11.6c-1.1,2-2.3,4-3.1,6.1c-0.1,0.3-0.2,0.5-0.2,0.8c0,0.1,0,0.1,0,0.2c0,0,0,0,0,0c0,0,0,0,0,0
		c0,0,0,0,0-0.1c0,0-0.1,0-0.1,0c0,0,0,0,0,0c0,0,0.1,0,0.1-0.1c0.4-0.3,0.8-0.8,1.1-1.2c0.7-0.9,1.4-1.8,2-2.8
		c5.1-7.6,9.9-15.5,14.6-23.4l0.9-1.5c0.3-0.5,0.5-1,0.8-1.5c0.5-1,0.9-2.1,1.4-3.1c0.9-2.1,1.6-4.3,2-6.5c0.5-2.2,0.8-4.5,0.7-6.8
		c-0.1-2.3-1.1-4.4-3.2-5.6l0.1,0c-1.1-0.5-2.3-0.4-3.6-0.1c-1.2,0.3-2.5,0.5-3.6,0.9c-1.2,0.4-2.3,0.9-3.4,1.5
		c-0.5,0.3-1.1,0.6-1.6,1c-0.5,0.4-1,0.7-1.5,1.1c-2,1.5-3.8,3.3-5.4,5.2c-1.6,1.9-3.1,3.9-4.4,6.1l0,0c-1.9,3.4-4,6.7-6.2,10
		c-2.2,3.2-4.5,6.4-6.8,9.6c-4.7,6.3-9.5,12.5-14.3,18.6c-0.1,0.1-0.1,0.1-0.2,0C545.7,543.1,545.7,543,545.7,542.9L545.7,542.9z"/>
</g>
<g>
	<path class="st0" d="M718.9,511.6c2.3-3.2,4.7-6.4,7.3-9.5c2.5-3.1,5.3-6,8.2-8.8c0.7-0.7,1.5-1.4,2.2-2c0.8-0.7,1.7-1.4,3.2-1.5
		c0.8,0,1.6,0.4,2.1,0.9c0.5,0.5,0.7,1.2,0.9,1.7c0.1,0.6,0.2,1.1,0.3,1.5l0.3,1.5c0.7,3.9,1.4,7.8,2,11.8c0.3,2,0.5,4,0.8,6
		c0.1,1,0.2,2,0.3,3c0.1,1,0.1,2.1,0.1,3.1c0,4.1-0.8,8.5-3,12.3c-1.1,1.9-2.7,3.6-4.5,4.9c-1.8,1.3-3.7,2.3-5.5,3.1l-5.5,2.4
		c-1.8,0.8-3.8,1.6-5.9,2.1c-1,0.3-2.1,0.5-3.2,0.6c-1.2,0.1-2.3,0.1-3.5-0.1c-1.1-0.1-2.2-0.4-3.4-0.8c-1.1-0.4-2.3-0.9-3.4-1.9
		c-0.3-0.2-0.5-0.5-0.8-0.8c-0.3-0.3-0.5-0.6-0.7-1c-0.1-0.2-0.2-0.4-0.3-0.6l-0.2-0.6l-0.1-0.6c0-0.2,0-0.4,0-0.6
		c0-0.9,0.2-1.5,0.4-2.3c0.3-0.6,0.5-1.3,0.9-1.8c1.4-2.2,3.5-3.6,5.4-4.6c4-2,8-2.9,11.8-3.8c1.9-0.5,3.8-0.9,5.4-1.6l2.6-1.1
		l2.5-1.3c6.7-3.5,12.7-8.5,18.3-14c5.6-5.4,11-11.4,16.8-16.9c1.5-1.4,2.9-2.8,4.8-4.1c0.9-0.7,2-1.3,3.2-1.7
		c0.6-0.2,1.2-0.4,1.9-0.5c0.7-0.1,1.4-0.2,2.1-0.1c1.4,0.1,2.8,0.5,4,1.3c0.6,0.4,1.2,0.9,1.8,1.5c0.5,0.6,0.9,1.4,1.2,2.2
		c0.5,1.6,0.3,3.3-0.1,4.5c-0.4,1.3-1,2.3-1.5,3.2c-4.2,7.3-10.2,13.3-16.7,18.2c-3.3,2.5-6.7,4.7-10.1,6.8
		c-3.4,2.1-6.8,3.9-9.2,6.5c-1.2,1.2-2.1,2.6-2.5,4.1c-0.2,0.7-0.3,1.3-0.2,1.6c0.1,0.3,0.3,0.6,0.8,0.9c0.5,0.3,1.2,0.5,2,0.6
		c0.4,0.1,0.8,0.1,1.2,0.1c0.4,0,0.8,0,1.3,0c0.9,0,1.9-0.1,2.8-0.2c1-0.1,1.9-0.2,2.8-0.4c7.6-1.1,15-3.8,22.5-6.5
		c7.4-2.8,15.1-5.4,22.8-7.3c7.7-2,15.6-3.5,23.5-4.7c3.9-0.6,7.9-1.1,11.8-1.6c4-0.4,7.9-0.7,11.9-1l0.1,0l0,0.3l-0.1,0
		c-15.8,1.6-31.5,4.2-46.8,8.5c-7.7,2.1-15.1,4.8-22.5,7.7c-7.4,2.8-14.9,5.6-22.8,7c-1,0.2-2,0.3-3,0.4c-1,0.1-2,0.2-3,0.3
		c-2,0.1-4.1,0.1-5.9-0.9c-0.5-0.3-0.9-0.6-1.2-1c-0.4-0.4-0.6-0.9-0.8-1.4c-0.3-1-0.1-2.1,0.2-3.1c0.6-1.9,1.7-3.7,3.1-5.2
		c2.8-2.9,6.3-4.9,9.7-7c3.4-2.1,6.7-4.2,9.8-6.7c6.3-4.8,12-10.5,15.8-17.4c0.5-0.9,0.9-1.7,1.2-2.6c0.3-0.9,0.4-1.9,0.1-2.8
		c-0.6-1.8-2.6-2.8-4.4-2.9c-1.9-0.1-3.8,0.8-5.3,1.9c-1.6,1.1-3,2.5-4.5,3.9c-5.8,5.4-11.2,11.3-16.9,16.8
		c-5.7,5.5-11.9,10.7-19,14.4c-3.5,1.9-7.3,3.2-11.2,4.1c-3.8,0.9-7.7,1.8-11.3,3.6c-1.7,0.9-3.4,2-4.4,3.7
		c-0.3,0.4-0.4,0.8-0.7,1.3c-0.1,0.5-0.3,0.9-0.2,1.4c0,0.9,0.5,1.8,1.2,2.4c0.7,0.6,1.6,1.1,2.5,1.4c0.9,0.3,1.9,0.6,2.8,0.7
		c1.9,0.3,3.9,0.1,5.8-0.4c1.9-0.5,3.8-1.2,5.6-1.9l5.5-2.3c1.8-0.8,3.6-1.7,5.2-2.8c1.6-1.1,3-2.6,4-4.2c2.1-3.4,2.8-7.4,2.9-11.3
		c0-2-0.1-3.9-0.3-5.9c-0.2-2-0.4-3.9-0.6-5.9c-0.5-3.9-1.1-7.9-1.7-11.8c-0.2-1-0.3-2-0.5-2.9c-0.2-0.9-0.8-1.8-1.8-1.8
		c-0.9,0-1.8,0.6-2.5,1.2c-0.8,0.6-1.5,1.3-2.2,2c-5.9,5.3-11,11.5-15.8,17.7l-0.1,0.1l-0.2-0.2L718.9,511.6z"/>
</g>
</svg>
